<?xml version="1.0" encoding="utf-8"?>
<!-- Generator: Adobe Illustrator 16.0.0, SVG Export Plug-In . SVG Version: 6.00 Build 0)  -->
<!DOCTYPE svg PUBLIC "-//W3C//DTD SVG 1.1//EN" "http://www.w3.org/Graphics/SVG/1.1/DTD/svg11.dtd">
<svg version="1.1" xmlns="http://www.w3.org/2000/svg" xmlns:xlink="http://www.w3.org/1999/xlink" x="0px" y="0px" width="490px" height="490px" viewBox="0.037 -26.783 490 490" enable-background="new 0.037 -26.783 490 490" xml:space="preserve" style="background:#fff;">
  <g>
    <path fill="#086fb3" d="M490.037,218.266c0-32.465-40.649-63.232-102.973-82.312c14.383-63.532,7.99-114.078-20.175-130.261
		C360.396,1.898,352.805,0.1,344.516,0.1v22.276c4.594,0,8.29,0.898,11.386,2.597c13.584,7.792,19.477,37.46,14.881,75.619
		c-1.098,9.39-2.896,19.279-5.093,29.369c-19.576-4.795-40.95-8.491-63.423-10.889c-13.483-18.48-27.466-35.263-41.549-49.946
		c32.561-30.268,63.123-46.851,83.897-46.851V0c-27.467,0-63.422,19.579-99.778,53.542C208.482,19.779,172.527,0.4,145.06,0.4
		v22.276c20.675,0,51.337,16.481,83.897,46.55c-13.983,14.685-27.966,31.366-41.25,49.847c-22.573,2.397-43.946,6.094-63.522,10.988
		c-2.297-9.989-3.996-19.679-5.193-28.969c-4.695-38.159,1.098-67.828,14.582-75.72c2.997-1.798,6.892-2.597,11.486-2.597V0.499
		c-8.39,0-15.981,1.798-22.573,5.594c-28.066,16.183-34.358,66.629-19.875,129.961C40.487,155.234,0.037,185.901,0.037,218.266
		c0,32.466,40.65,63.232,102.974,82.313c-14.383,63.531-7.99,114.077,20.175,130.26c6.492,3.796,14.083,5.595,22.472,5.595
		c27.467,0,63.423-19.579,99.779-53.543c36.355,33.764,72.311,53.143,99.777,53.143c8.391,0,15.981-1.798,22.573-5.594
		c28.065-16.183,34.358-66.629,19.876-129.961C449.588,281.399,490.037,250.631,490.037,218.266L490.037,218.266z M359.997,151.638
		c-3.696,12.886-8.29,26.172-13.483,39.457c-4.095-7.991-8.39-15.982-13.084-23.974c-4.595-7.992-9.489-15.783-14.382-23.375
		C333.229,145.844,346.913,148.441,359.997,151.638z M314.253,258.024c-7.791,13.485-15.781,26.271-24.07,38.159
		c-14.882,1.299-29.963,1.998-45.146,1.998c-15.082,0-30.163-0.699-44.944-1.898c-8.29-11.887-16.38-24.573-24.171-37.959
		c-7.591-13.086-14.482-26.372-20.774-39.758c6.192-13.386,13.184-26.771,20.675-39.857c7.791-13.485,15.781-26.271,24.07-38.159
		c14.882-1.298,29.963-1.997,45.145-1.997c15.083,0,30.163,0.699,44.945,1.897c8.29,11.888,16.38,24.574,24.171,37.96
		c7.591,13.086,14.482,26.371,20.774,39.757C328.635,231.552,321.744,244.938,314.253,258.024L314.253,258.024z M346.513,245.037
		c5.393,13.386,9.988,26.771,13.783,39.758c-13.084,3.196-26.867,5.894-41.15,7.991c4.894-7.692,9.789-15.583,14.382-23.675
		C338.123,261.12,342.418,253.029,346.513,245.037L346.513,245.037z M245.237,351.623c-9.289-9.59-18.577-20.278-27.766-31.966
		c8.989,0.399,18.178,0.699,27.466,0.699c9.389,0,18.678-0.199,27.766-0.699C263.715,331.345,254.426,342.033,245.237,351.623z
		 M170.928,292.786c-14.182-2.098-27.866-4.695-40.95-7.892c3.695-12.887,8.29-26.172,13.483-39.458
		c4.095,7.991,8.389,15.983,13.084,23.975C161.24,277.403,166.034,285.195,170.928,292.786z M244.738,84.909
		c9.289,9.589,18.577,20.278,27.766,31.966c-8.99-0.4-18.178-0.7-27.467-0.7c-9.388,0-18.677,0.2-27.765,0.7
		C226.26,105.188,235.549,94.498,244.738,84.909z M170.828,143.746c-4.895,7.691-9.789,15.583-14.382,23.675
		c-4.595,7.991-8.889,15.982-12.984,23.974c-5.394-13.386-9.988-26.771-13.783-39.757
		C142.762,148.541,156.546,145.844,170.828,143.746L170.828,143.746z M80.439,268.812c-35.357-15.084-58.229-34.862-58.229-50.546
		c0-15.683,22.873-35.562,58.229-50.546c8.589-3.695,17.978-6.992,27.666-10.089c5.693,19.579,13.184,39.957,22.472,60.835
		c-9.188,20.777-16.58,41.056-22.172,60.535C98.516,275.905,89.128,272.508,80.439,268.812L80.439,268.812z M134.173,411.559
		c-13.584-7.791-19.477-37.46-14.881-75.619c1.098-9.39,2.896-19.279,5.093-29.368c19.576,4.795,40.951,8.491,63.423,10.889
		c13.483,18.479,27.466,35.262,41.549,49.946c-32.561,30.268-63.123,46.85-83.897,46.85
		C140.965,414.156,137.17,413.257,134.173,411.559L134.173,411.559z M371.083,335.441c4.695,38.159-1.098,67.827-14.582,75.719
		c-2.997,1.798-6.892,2.598-11.486,2.598c-20.675,0-51.337-16.482-83.897-46.551c13.983-14.684,27.966-31.366,41.25-49.847
		c22.573-2.397,43.946-6.093,63.522-10.988C368.187,316.461,369.985,326.151,371.083,335.441z M409.536,268.812
		c-8.589,3.696-17.978,6.992-27.666,10.09c-5.693-19.579-13.185-39.958-22.473-60.835c9.189-20.778,16.58-41.057,22.173-60.535
		c9.888,3.097,19.276,6.493,28.065,10.188c35.357,15.084,58.229,34.863,58.229,50.546
		C467.765,233.949,444.893,253.828,409.536,268.812L409.536,268.812z" />
    <ellipse fill="#086fb3" cx="245" cy="218" rx="45" ry="45" />
    <path fill="#086fb3" d="M344.416,0.1" />
    <animateTransform fill="freeze" type="rotate" restart="always" dur="5s" to="360 245 218" from="0 245 218" accumulate="none" repeatCount="indefinite" attributeName="transform" calcMode="linear" additive="replace">
    </animateTransform>
  </g>
</svg>
